<svg xmlns="http://www.w3.org/2000/svg" viewBox="0 0 211.68 43.22"><defs><style>.cls-1{fill:#666;stroke:#000;stroke-miterlimit:10;}.cls-2{font-size:36px;font-family:MVBoli, MV Boli;}</style></defs><g id="Layer_2" data-name="Layer 2"><g id="Layer_1-2" data-name="Layer 1"><path class="cls-1" d="M42.61,41a2.89,2.89,0,0,1-3.85,1.42L2.19,25.62a2.9,2.9,0,0,1-.66-4.85l0,0a2.72,2.72,0,0,1,.7-.54L37.64,1a2.9,2.9,0,1,1,2.77,5.1L9.79,22.73l31.4,14.45A2.91,2.91,0,0,1,42.61,41Z"/><path class="cls-1" d="M168.93,2.37A2.93,2.93,0,0,1,171.56.66a3.06,3.06,0,0,1,1.21.26l36.71,16.54a2.91,2.91,0,0,1,1.45,3.84,3,3,0,0,1-.75,1l0,0a2.75,2.75,0,0,1-.7.55L174.22,42.35a2.93,2.93,0,0,1-4.31-2.52,2.94,2.94,0,0,1,1.5-2.56L201.9,20.41,170.38,6.21A2.92,2.92,0,0,1,168.93,2.37Z"/><text class="cls-2" transform="translate(39.85 30.87)">angelito</text></g></g></svg>